# xmcd
#
# Track frame offsets: 
#        150
#        11678
#        24912
#        35802
#        46925
#        57113
#        66021
#        80843
#        96044
#        108130
#        119762
#        130255
#        144064
#        154969
#        166461
#        174814
#        187655
#        195528
#        208313
#        220280
#        230778
#        241053
#        253400
#        264908
#        275603
#        287935
#        298014
#        308463
#        319424
#
# Disc length: 4414 seconds
#
# Revision: 0
# Processed by: cddbd v1.5.1PL2 Copyright (c) Steve Scherf et al.
# Submitted via: ExactAudioCopy v0.95b4
#
DISCID=aa113c1d
DTITLE=Various Artist - The Complete Motown Singles Volume 4 [CD18)
DYEAR=2006
DGENRE=R&B/Soul
TTITLE0=Stevie Wonder - Hey Harmonica Man (First Pressing)
TTITLE1=Stevie Wonder - This Little Girl
TTITLE2=Dorsey Burnette - Little Acorn
TTITLE3=Dorsey Burnette - Cold As Usual
TTITLE4=Bobby Breen - You're Just Like You
TTITLE5=Bobby Breen - Here Comes That Heartache
TTITLE6=Marvin Gaye - Try It Baby
TTITLE7=Marvin Gaye - If My Heart Could Sing
TTITLE8=Stevie Wonder - Hey Harmonica Man (Second Pressing)
TTITLE9=The Miracles - I Like It Like That
TTITLE10=The Miracles - You're So Fine And Sweet
TTITLE11=The Marvelettes - You're My Remedy
TTITLE12=The Marvelettes - A Little Bit Of Sympathy, A Little Bit Of L
TTITLE12=ove
TTITLE13=The Supremes - Where Did Our Love Go
TTITLE14=The Supremes - He Means The World To Me
TTITLE15=Dorsey Burnette - Jimmy Brown
TTITLE16=Dorsey Burnette - Everybody's Angel
TTITLE17=Brenda Holloway - I'll Always Love You
TTITLE18=Brenda Holloway - Sad Song
TTITLE19=Mary Wells - When I'm Gone
TTITLE20=Mary Wells - Guarentee (For A Lifetime)
TTITLE21=Four Tops - Baby I Need Your Loving
TTITLE22=Four Tops - Call On Me
TTITLE23=Jimmy Ruffin - Since I've Lost You
TTITLE24=Jimmy Ruffin - I Want Her Love
TTITLE25=Bruce Channel - You Make Me Happy
TTITLE26=Bruce Channel - You Never Looked Better
TTITLE27=Eddie Holland - Candy To Me
TTITLE28=Eddie Holland - If You Don't Want My Love
EXTD=
EXTT0=
EXTT1=
EXTT2=
EXTT3=
EXTT4=
EXTT5=
EXTT6=
EXTT7=
EXTT8=
EXTT9=
EXTT10=
EXTT11=
EXTT12=
EXTT13=
EXTT14=
EXTT15=
EXTT16=
EXTT17=
EXTT18=
EXTT19=
EXTT20=
EXTT21=
EXTT22=
EXTT23=
EXTT24=
EXTT25=
EXTT26=
EXTT27=
EXTT28=
PLAYORDER=
